PathFileType	4	(X/Y/Z)	C:/Users/opensim2020/Desktop/walking_exp_matlab/subject03_walking14_straight_04.trc																																																																																																																																											
DataRate	CameraRate	NumFrames	NumMarkers	Units	OrigDataRate	OrigDataStartFrame	OrigNumFrames																																																																																																																																							
100	100	4	47	mm	100	2178	177																																																																																																																																							
Frame#	Time	LFHD			RFHD			LBHD			RBHD			C7			T10			CLAV			STRN			RBAK			LSHO			LUPA			LELB			LFRM			LWRA			LWRB			LFIN			RSHO			RUPA			RELB			RFRM			RWRA			RWRB			RFIN			LASI			RASI			LPSI			RPSI			LTHI			LKNE			LTIB			LANK			LHEE			LTOE			RTHI			RKNE			RTIB			RANK			RHEE			RTOE			*39			*40			*41			*42			*43			*44			*45			*46		
		X1	Y1	Z1	X2	Y2	Z2	X3	Y3	Z3	X4	Y4	Z4	X5	Y5	Z5	X6	Y6	Z6	X7	Y7	Z7	X8	Y8	Z8	X9	Y9	Z9	X10	Y10	Z10	X11	Y11	Z11	X12	Y12	Z12	X13	Y13	Z13	X14	Y14	Z14	X15	Y15	Z15	X16	Y16	Z16	X17	Y17	Z17	X18	Y18	Z18	X19	Y19	Z19	X20	Y20	Z20	X21	Y21	Z21	X22	Y22	Z22	X23	Y23	Z23	X24	Y24	Z24	X25	Y25	Z25	X26	Y26	Z26	X27	Y27	Z27	X28	Y28	Z28	X29	Y29	Z29	X30	Y30	Z30	X31	Y31	Z31	X32	Y32	Z32	X33	Y33	Z33	X34	Y34	Z34	X35	Y35	Z35	X36	Y36	Z36	X37	Y37	Z37	X38	Y38	Z38	X39	Y39	Z39	X40	Y40	Z40	X41	Y41	Z41	X42	Y42	Z42	X43	Y43	Z43	X44	Y44	Z44	X45	Y45	Z45	X46	Y46	Z46	X47	Y47	Z47
																																																																																																																																														
1	0	-1038.20386	1592.14807	891.28101	-1048.1571	1602.13171	1023.39825	-1160.76636	1535.05139	889.63232	-1165.67725	1544.62427	1019.8595	-1185.00989	1386.76978	946.57184	-1229.70801	1076.93945	955.27673	-1063.55823	1307.70361	958.96686	-1026.20117	1140.12341	952.36346	-1248.81726	1212.83545	1035.63599	-1098.07251	1348.33704	801.61829	-1063.1427	1159.53918	735.76868	-1016.06641	1046.65503	740.3703	-926.19781	970.4657	783.64087	-852.44849	907.51752	855.80621	-853.06403	885.86237	804.6839	-789.47089	850.40338	844.26099	-1125.41187	1331.12659	1113.62683	-1168.31567	1112.63037	1184.77551	-1177.33862	1000.22174	1200.94263	-1196.59094	864.43536	1208.64539	-1188.38635	761.46594	1180.65649	-1225.68945	768.25763	1220.84912	-1229.04785	691.42688	1210.00085	-1077.49963	903.84955	837.52332	-1060.86267	913.58118	1075.34644	-1234.66016	933.02667	902.23267	-1224.5155	940.44415	1049.24622	-1196.61938	616.41217	816.03149	-1246.63403	445.38226	857.7782	-1367.60815	285.71747	861.27448	-1470.44531	101.12238	907.05493	-1522.13782	83.61921	940.89734	-1338.51819	27.07556	945.08813	-1050.95276	626.74463	1138.34814	-969.61005	469.28595	1100.07263	-942.00464	283.35767	1113.61731	-878.83624	72.70457	1077.83643	-909.98114	28.93575	1026.29602	-734.28943	72.09558	1057.37659	NaN	NaN	NaN	-1129.79822	1645.70337	933.15649	NaN	NaN	NaN	NaN	NaN	NaN	NaN	NaN	NaN	NaN	NaN	NaN	NaN	NaN	NaN	NaN	NaN	NaN
2	0.01	-1025.41528	1591.94727	892.9173	-1035.00134	1601.90173	1025.1012	-1147.88928	1534.70911	891.63599	-1152.47791	1544.31445	1021.89856	-1171.67749	1386.14941	948.6781	-1215.16589	1076.14038	956.36871	-1049.88464	1307.56335	960.89832	-1011.88257	1140.16687	954.1134	-1234.7439	1211.86011	1037.4917	-1084.88794	1348.19653	803.50293	-1050.84167	1159.28308	737.10632	-1004.21332	1046.35876	741.36847	-913.86121	971.40289	784.86963	-839.50684	909.7168	857.27448	-839.8335	887.82874	806.26379	-775.39301	854.27045	845.58173	-1111.79272	1330.66382	1115.55237	-1153.57007	1111.85669	1186.37927	-1162.2041	999.4516	1202.4353	-1181.68433	863.7677	1210.32349	-1173.89087	760.68164	1182.42053	-1210.9906	767.6626	1222.78064	-1214.90088	690.74329	1211.91357	-1062.62964	903.14563	838.85931	-1045.82178	914.06384	1076.80847	-1219.74512	932.1637	903.41943	-1209.78943	940.02472	1050.1626	-1182.14343	615.75055	816.50977	-1232.54541	444.43396	856.83508	-1357.93103	287.47662	860.3468	-1466.02051	106.03972	906.2688	-1518.53406	90.95967	939.76154	-1338.08142	26.92831	945.01068	-1034.59094	627.3078	1137.93616	-954.08929	469.72144	1099.50085	-930.54688	281.6261	1112.23718	-873.61676	69.82532	1075.59961	-906.7912	27.63421	1024.22095	-729.45062	64.59304	1054.48938	NaN	NaN	NaN	-1116.88916	1645.43628	935.0423	NaN	NaN	NaN	NaN	NaN	NaN	NaN	NaN	NaN	NaN	NaN	NaN	NaN	NaN	NaN	NaN	NaN	NaN
3	0.02	-1012.5827	1591.9989	894.50842	-1021.7926	1601.85632	1026.75391	-1134.98975	1534.62842	893.65698	-1139.21094	1544.15735	1023.88977	-1158.47363	1385.79822	950.76538	-1200.27283	1075.39368	957.58038	-1036.08264	1307.59839	962.78705	-997.31952	1140.42834	955.87549	-1220.54224	1210.93652	1039.33569	-1071.66394	1348.18176	805.53137	-1038.55212	1159.20325	738.50964	-992.80273	1046.13025	742.48859	-901.91229	972.14264	785.84412	-826.80542	911.75873	858.36066	-827.0965	889.45563	807.50287	-761.98108	857.49481	846.41718	-1098.07886	1330.49255	1117.50732	-1138.70898	1111.34253	1188.08594	-1146.79688	998.92474	1204.03198	-1166.29688	863.31482	1212.02063	-1158.69727	760.04071	1184.14026	-1195.6228	767.22339	1224.67517	-1199.98657	690.35345	1213.91406	-1047.15576	902.6004	840.21027	-1030.64856	914.75275	1078.18799	-1204.72498	931.51849	904.55859	-1194.93518	940.02161	1051.3042	-1166.77393	614.89697	816.82111	-1217.29993	443.28842	855.68372	-1347.31458	289.28708	859.41968	-1461.62244	112.17324	904.88617	-1514.00806	99.30402	938.90045	-1337.46631	26.81902	944.95386	-1018.04883	628.05487	1137.83728	-938.39966	470.0867	1099.18274	-919.51245	280.23749	1110.09961	-868.05634	68.5849	1074.3429	-904.62964	29.59118	1023.28333	-724.41205	52.06275	1051.05322	NaN	NaN	NaN	-1103.9917	1645.62036	936.4917	NaN	NaN	NaN	NaN	NaN	NaN	NaN	NaN	NaN	NaN	NaN	NaN	NaN	NaN	NaN	NaN	NaN	NaN
4	0.03	-999.68042	1592.50024	896.0495	-1008.48297	1602.41052	1028.39709	-1122.11255	1534.92493	895.57446	-1125.87219	1544.41846	1025.93579	-1145.28638	1385.71399	952.86823	-1185.39612	1075.15698	959.13141	-1022.26471	1308.12122	964.68756	-982.74255	1141.30664	957.67633	-1206.27124	1210.32593	1041.03271	-1058.45959	1348.5896	807.45947	-1026.36829	1159.29236	739.97162	-981.57977	1046.02893	743.39575	-890.32495	972.73187	786.62933	-814.61719	913.21637	859.08832	-814.96417	890.67175	808.37115	-749.17358	860.03143	846.76782	-1084.3595	1330.69446	1119.54028	-1123.7179	1111.08411	1189.88562	-1131.16028	998.64819	1205.76147	-1150.38745	863.00085	1213.75195	-1142.77881	759.74585	1185.94006	-1179.60962	766.80652	1226.35754	-1184.13086	690.05023	1215.93787	-1031.42542	902.17773	841.40717	-1015.50702	915.56464	1079.54907	-1189.5144	931.17706	905.68445	-1179.61853	940.45831	1052.32788	-1150.54077	613.93066	817.02557	-1200.73291	441.94418	854.51099	-1335.61023	291.35901	858.50867	-1455.95764	118.82205	903.82849	-1508.50708	109.00512	937.72906	-1336.59521	26.84124	944.98022	-1001.58594	629.73206	1138.16479	-922.8407	471.29034	1098.8717	-907.41669	280.9902	1108.8927	-862.34613	68.08806	1075.02319	-902.4696	31.36277	1024.55396	-720.73706	42.61	1047.02759	NaN	NaN	NaN	-1091.10632	1646.16248	939.66937	NaN	NaN	NaN	NaN	NaN	NaN	NaN	NaN	NaN	NaN	NaN	NaN	NaN	NaN	NaN	NaN	NaN	NaN
